<svg width="16" height="16" viewBox="0 0 16 16" fill="none" xmlns="http://www.w3.org/2000/svg">
<g id="Stop" clip-path="url(#clip0_23800_27438)">
<path id="Vector" d="M14.8184 0.5H1.18156C0.805146 0.5 0.5 0.805146 0.5 1.18156V14.8184C0.5 15.1949 0.805146 15.5 1.18156 15.5H14.8184C15.1949 15.5 15.5 15.1949 15.5 14.8184V1.18156C15.5 0.805146 15.1949 0.5 14.8184 0.5Z" stroke="#212121" stroke-linecap="round" stroke-linejoin="round"/>
<path id="&#208;&#161;" d="M9.97143 9.41711H11C10.9464 9.90909 10.8054 10.3494 10.5768 10.738C10.3482 11.1266 10.025 11.4349 9.60714 11.6631C9.18929 11.8877 8.66786 12 8.04286 12C7.58571 12 7.16964 11.9144 6.79464 11.7433C6.42321 11.5722 6.10357 11.3298 5.83571 11.016C5.56786 10.6988 5.36071 10.3191 5.21429 9.87701C5.07143 9.43137 5 8.93583 5 8.39037V7.61497C5 7.06952 5.07143 6.57576 5.21429 6.13369C5.36071 5.68806 5.56964 5.3066 5.84107 4.9893C6.11607 4.67201 6.44643 4.42781 6.83214 4.25668C7.21786 4.08556 7.65179 4 8.13393 4C8.72321 4 9.22143 4.11052 9.62857 4.33155C10.0357 4.55258 10.3518 4.85918 10.5768 5.25134C10.8054 5.63993 10.9464 6.09091 11 6.60428H9.97143C9.92143 6.24064 9.82857 5.9287 9.69286 5.66845C9.55714 5.40463 9.36429 5.20143 9.11429 5.05882C8.86429 4.91622 8.5375 4.84492 8.13393 4.84492C7.7875 4.84492 7.48214 4.91087 7.21786 5.04278C6.95714 5.17469 6.7375 5.36185 6.55893 5.60428C6.38393 5.8467 6.25179 6.13725 6.1625 6.47594C6.07321 6.81462 6.02857 7.19073 6.02857 7.60428V8.39037C6.02857 8.77184 6.06786 9.13012 6.14643 9.46524C6.22857 9.80036 6.35179 10.0945 6.51607 10.3476C6.68036 10.6007 6.88929 10.8004 7.14286 10.9465C7.39643 11.0891 7.69643 11.1604 8.04286 11.1604C8.48214 11.1604 8.83214 11.0909 9.09286 10.9519C9.35357 10.8128 9.55 10.6132 9.68214 10.3529C9.81786 10.0927 9.91429 9.78075 9.97143 9.41711Z" fill="#212121"/>
</g>
<defs>
<clipPath id="clip0_23800_27438">
<rect width="16" height="16" fill="white"/>
</clipPath>
</defs>
</svg>
