<svg width="20" height="20" viewBox="0 0 20 20" fill="none" xmlns="http://www.w3.org/2000/svg">
<g id="Stop">
<path id="Vector" d="M15.932 4H4.56797C4.25429 4 4 4.25429 4 4.56797V15.932C4 16.2457 4.25429 16.5 4.56797 16.5H15.932C16.2457 16.5 16.5 16.2457 16.5 15.932V4.56797C16.5 4.25429 16.2457 4 15.932 4Z" stroke="black" stroke-linecap="round" stroke-linejoin="round"/>
<path id="M" d="M7.26311 7H8.0697L10.1272 12.0953L12.1803 7H12.9912L10.4377 13.25H9.80797L7.26311 7ZM7 7H7.7117L7.82816 10.8118V13.25H7V7ZM12.5383 7H13.25V13.25H12.4218V10.8118L12.5383 7Z" fill="black"/>
</g>
</svg>
